<svg width="24" height="24" viewBox="0 0 24 24" fill="none" xmlns="http://www.w3.org/2000/svg">
<path fill-rule="evenodd" clip-rule="evenodd" d="M17.0688 4.65564C15.4891 4.14892 13.5798 4.54559 12.6134 6.01138C12.4811 6.21205 12.2587 6.335 12.0184 6.34033C11.7781 6.34567 11.5505 6.23272 11.4094 6.03812C10.3563 4.58562 8.47697 4.15504 6.92639 4.65541C4.00909 5.59439 2.81704 9.14452 3.78785 12.1759C4.56852 14.6054 6.27592 16.4593 8.01136 17.7146C8.87627 18.3402 9.7344 18.8067 10.4616 19.1145C11.2128 19.4324 11.7538 19.551 12.0021 19.551C12.2485 19.551 12.7914 19.4301 13.5481 19.1069C14.2798 18.7944 15.1432 18.322 16.0116 17.6924C17.7553 16.4281 19.459 14.5749 20.2122 12.1799L20.2133 12.1764C21.183 9.1462 19.9862 5.59507 17.0688 4.65564ZM11.9817 4.47349C13.4739 2.95671 15.7431 2.69246 17.5166 3.26156C21.4628 4.53206 22.7307 9.11119 21.6085 12.621C20.7312 15.4085 18.7762 17.4965 16.8711 18.8778C15.9149 19.5711 14.9562 20.0977 14.1232 20.4535C13.3153 20.7985 12.5508 21.0152 12.0021 21.0152C11.4559 21.0152 10.6963 20.8038 9.89086 20.4629C9.0614 20.1119 8.10692 19.5908 7.15322 18.901C5.25155 17.5255 3.29792 15.4379 2.39368 12.6235C1.26983 9.11477 2.52825 4.53293 6.47704 3.26182M11.9817 4.47349C10.4697 3.02049 8.2765 2.68133 6.47704 3.26182L11.9817 4.47349Z" fill="#17A15B"/>
</svg>
