<svg width="16" height="16" viewBox="0 0 16 16" fill="none" xmlns="http://www.w3.org/2000/svg">
<path d="M14.4966 13.6891L12.5514 11.7851C13.2538 11.0103 13.7502 10.0779 13.9968 9.07059C14.2433 8.06324 14.2324 7.01194 13.9649 6.0097C13.6368 4.78944 12.9402 3.69446 11.9662 2.86788C10.9921 2.0413 9.78595 1.5216 8.50533 1.37669C7.53382 1.26428 6.54891 1.37114 5.62614 1.68908C4.70337 2.00701 3.86725 2.52758 3.18189 3.21085C2.49811 3.88898 1.98103 4.71058 1.66984 5.61336C1.35865 6.51615 1.26151 7.47643 1.3858 8.42141C1.58856 9.91879 2.33618 11.2944 3.49148 12.2958C4.64678 13.2972 6.13226 13.8572 7.67537 13.8731C9.12441 13.8969 10.5375 13.4306 11.676 12.553L13.6731 14.5015C13.7266 14.5542 13.7903 14.5959 13.8604 14.6242C13.9306 14.6526 14.0058 14.6669 14.0816 14.6665C14.1593 14.6685 14.2365 14.6543 14.3081 14.6247C14.3797 14.5952 14.4439 14.551 14.4966 14.4951C14.6055 14.3881 14.6666 14.2432 14.6666 14.0921C14.6666 13.941 14.6055 13.7961 14.4966 13.6891ZM11.4491 11.2266C10.9655 11.7044 10.3898 12.0835 9.75533 12.3417C9.12086 12.5999 8.4403 12.7321 7.75318 12.7308C7.40511 12.7302 7.05782 12.6984 6.71572 12.6356C5.69622 12.4442 4.75883 11.9578 4.0248 11.2393C3.29076 10.5209 2.79385 9.60335 2.59833 8.60546C2.42509 7.77697 2.46601 6.91924 2.71739 6.11016C2.96877 5.30108 3.42264 4.56627 4.03779 3.97245C4.52136 3.49463 5.09709 3.1156 5.73156 2.85739C6.36603 2.59918 7.0466 2.46692 7.73372 2.4683C8.08179 2.46882 8.42908 2.50069 8.77118 2.5635C9.79068 2.75488 10.7281 3.24126 11.4621 3.95973C12.1961 4.6782 12.693 5.59571 12.8886 6.59359C13.0618 7.42208 13.0209 8.27981 12.7695 9.08889C12.5181 9.89798 12.0643 10.6328 11.4491 11.2266Z" fill="white"/>
</svg>
